<?xml version="1.0" encoding="utf-8"?>
<!-- Generator: Adobe Illustrator 24.3.0, SVG Export Plug-In . SVG Version: 6.00 Build 0)  -->
<svg version="1.0" id="Layer_1" xmlns="http://www.w3.org/2000/svg" xmlns:xlink="http://www.w3.org/1999/xlink" x="0px" y="0px"
	 viewBox="0 0 841.89 595.28" style="enable-background:new 0 0 841.89 595.28;" xml:space="preserve">
<style type="text/css">
	.st0{fill:#F25022;}
	.st1{fill:#FEFEFE;}
	.st2{fill:#80BA01;}
	.st3{fill:#777777;}
	.st4{fill:#02A4EF;}
	.st5{fill:#FFB902;}
</style>
<g>
	<path class="st0" d="M80.84,225.01h69.1c0,23.03,0,46.07,0,69.1c-23.03,0-46.06,0-69.1,0V225.01L80.84,225.01z"/>
	<path class="st1" d="M149.94,225.01h7.06c0,23.03,0,46.07,0,69.1c23.03,0,46.06,0,69.09,0c0.01-23.03,0-46.07,0-69.1h534.96v53.74
		c-4.93,0.02-9.86-0.04-14.79,0.03c-0.11-6.24-0.01-12.48-0.05-18.71c-4.93,1.49-9.83,3.07-14.79,4.48
		c-0.12,4.73-0.01,9.47-0.06,14.2c-7.29,0-14.57,0.01-21.86-0.01c0.09-3.73-0.26-7.48,0.28-11.19c0.44-2.92,2.14-5.84,4.98-6.97
		c3.59-1.47,7.6-0.49,11.01,1.01c-0.02-4.27,0.03-8.54-0.03-12.81c-7.18-1.98-15.41-1.59-21.78,2.56c-4.11,2.63-7.09,6.84-8.43,11.5
		c-1.59,5.17-0.78,10.63-1.03,15.93c-3.46-0.02-6.91-0.06-10.36,0.02c0.04,3.99,0.02,7.99,0.01,11.97c3.47,0.07,6.93-0.01,10.4,0.05
		c-0.03,16.8-0.01,33.6-0.01,50.4c4.98,0,9.96,0,14.94,0c0-16.8,0-33.61,0-50.41c7.29-0.01,14.58-0.01,21.87,0
		c0.02,10.71-0.02,21.42,0.02,32.13c0.07,4.99,0.92,10.32,4.22,14.26c2.86,3.49,7.4,5.08,11.78,5.4c4.62,0.33,9.39-0.24,13.66-2.09
		v29.77H226.09c0-23.03,0-46.07,0-69.1c-23.03,0-46.07,0-69.1,0c-0.01,23.03,0,46.06,0,69.1h-7.06c0-23.03,0-46.06,0-69.1
		c-23.03-0.01-46.07,0-69.1-0.01v-7.05c23.03,0,46.07,0,69.1,0C149.94,271.08,149.93,248.05,149.94,225.01L149.94,225.01z"/>
	<path class="st2" d="M156.99,225.01h69.1c0,23.03,0,46.07,0,69.1c-23.03,0-46.06,0-69.09,0
		C156.99,271.08,156.99,248.05,156.99,225.01L156.99,225.01z"/>
	<path class="st3" d="M703.97,251.34c6.37-4.15,14.6-4.53,21.78-2.56c0.06,4.27,0.01,8.54,0.03,12.81
		c-3.41-1.5-7.42-2.48-11.01-1.01c-2.85,1.13-4.54,4.05-4.98,6.97c-0.54,3.71-0.19,7.46-0.28,11.19c7.29,0.02,14.58,0,21.86,0.01
		c0.05-4.73-0.06-9.47,0.06-14.2c4.96-1.41,9.86-2.99,14.79-4.48c0.04,6.23-0.06,12.47,0.05,18.71c4.93-0.07,9.86-0.02,14.79-0.03
		v12.14c-4.95-0.2-9.9-0.05-14.85-0.07c0.02,6.98,0,13.95,0.01,20.93c0.08,3.86-0.21,7.75,0.25,11.6c0.27,2.27,1.1,4.79,3.23,5.96
		c3.57,2,8.09,1.13,11.36-1.07v12.26c-4.27,1.85-9.04,2.42-13.66,2.09c-4.38-0.32-8.92-1.92-11.78-5.4
		c-3.3-3.94-4.15-9.27-4.22-14.26c-0.04-10.71,0-21.42-0.02-32.13c-7.29,0-14.58-0.01-21.87,0c-0.01,16.8,0,33.61,0,50.41
		c-4.98,0-9.96,0-14.94,0c0-16.8-0.02-33.6,0.01-50.4c-3.47-0.07-6.93,0.02-10.4-0.05c0.01-3.99,0.03-7.98-0.01-11.97
		c3.45-0.08,6.9-0.05,10.36-0.02c0.25-5.3-0.56-10.76,1.03-15.93C696.88,258.18,699.86,253.97,703.97,251.34L703.97,251.34z"/>
	<path class="st3" d="M384,252.21c3.01-0.46,6.27,0.57,8.27,2.93c2.34,2.58,2.77,6.69,1.04,9.71c-1.92,3.4-6.21,4.98-9.95,4.17
		c-3.88-0.7-7.11-4.3-6.94-8.33C376.31,256.46,379.85,252.69,384,252.21L384,252.21z"/>
	<path class="st3" d="M269.46,254.06c7.25,0,14.49,0,21.73,0c6.76,17.18,13.58,34.34,20.35,51.52c1.73,4.3,3.35,8.64,5.16,12.9
		c8.7-21.47,17.53-42.88,26.17-64.37c6.97-0.11,13.94-0.03,20.91-0.04c-0.02,29.05-0.01,58.09,0,87.14
		c-5.03-0.01-10.06,0.04-15.08-0.03c0.05-21.44,0-42.87,0.02-64.31c0.01-0.96-0.02-1.93-0.09-2.89c-0.29,0.45-0.56,0.91-0.78,1.39
		c-8.64,21.94-17.44,43.82-26.03,65.78c-3.58,0.13-7.16,0.01-10.74,0.07c-8.91-21.94-17.71-43.93-26.57-65.89
		c-0.23-0.46-0.48-0.9-0.75-1.33c-0.18,9.39-0.03,18.79-0.08,28.18c0,13.01-0.01,26.01,0,39.02c-4.74,0.01-9.49,0-14.23,0
		C269.46,312.17,269.45,283.11,269.46,254.06L269.46,254.06z"/>
	<path class="st3" d="M425.12,278.69c7.21-2.05,14.99-1.97,22.2,0.07c1.49,0.41,2.93,0.99,4.26,1.78c-0.08,4.76,0,9.52-0.05,14.29
		c-4.82-3.68-10.93-6.01-17.06-5.24c-4.86,0.44-9.5,2.96-12.41,6.89c-3.74,4.87-4.6,11.34-3.96,17.3c0.48,4.67,2.41,9.33,6.04,12.42
		c3.77,3.35,9.05,4.54,13.98,4.16c4.87-0.56,9.47-2.62,13.41-5.5c0.04,4.51-0.02,9.02,0.03,13.53c-6.11,3.64-13.43,4.57-20.43,4.23
		c-7.15-0.38-14.29-3.09-19.47-8.12c-5.63-5.42-8.68-13.16-9.04-20.91c-0.36-8.06,1.27-16.46,5.91-23.19
		C412.43,284.67,418.5,280.6,425.12,278.69L425.12,278.69z"/>
	<path class="st3" d="M526.38,277.62c7.17-0.91,14.74-0.51,21.39,2.52c5.78,2.61,10.46,7.42,13.05,13.19
		c2.77,6.14,3.44,13.04,2.97,19.7c-0.46,6.5-2.5,13.02-6.57,18.19c-4.16,5.49-10.44,9.2-17.16,10.59c-5.74,1.2-11.75,1.19-17.5-0.02
		c-6.87-1.47-13.23-5.46-17.27-11.26c-4.73-6.72-6.08-15.27-5.47-23.33c0.41-6.84,2.53-13.73,6.9-19.09
		C511.51,282.11,518.84,278.57,526.38,277.62L526.38,277.62z"/>
	<path class="st3" d="M588.37,277.74c6.91-1.22,14.14-0.32,20.68,2.15c0.01,4.58,0,9.16,0,13.74c-4.57-3.14-10.15-4.83-15.7-4.64
		c-2.79,0.11-5.86,1.29-7.14,3.95c-1.01,2.63-0.31,6.07,2.17,7.65c4.24,2.83,9.29,4.04,13.68,6.58c3.46,1.94,6.81,4.48,8.56,8.14
		c3.29,6.86,1.9,15.92-3.89,21.03c-5.52,5.16-13.48,6.59-20.8,6.32c-5.2-0.34-10.42-1.36-15.19-3.49c0.02-4.82-0.03-9.63,0.02-14.45
		c4.02,2.92,8.65,5.01,13.56,5.85c3.42,0.56,7.13,0.58,10.31-0.95c3.05-1.51,3.59-5.84,1.79-8.49c-1.69-2.04-4.18-3.16-6.52-4.27
		c-4.4-1.98-9.03-3.64-12.9-6.6c-2.72-2.12-4.78-5.11-5.58-8.48c-1.19-4.97-0.82-10.57,2.07-14.91
		C576.8,281.82,582.53,278.79,588.37,277.74L588.37,277.74z"/>
	<path class="st3" d="M645.49,277.6c7.46-0.93,15.38-0.42,22.18,3.01c5.94,2.97,10.54,8.33,12.84,14.53
		c1.8,4.74,2.43,9.86,2.32,14.92c0.01,7.55-2.02,15.29-6.76,21.27c-4.43,5.79-11.21,9.56-18.37,10.74c-7,1.13-14.4,0.84-21.05-1.78
		c-6.74-2.65-12.34-8.06-15.18-14.73c-2.96-6.79-3.27-14.44-2.35-21.7c0.97-7.26,4.25-14.36,9.86-19.18
		C633.57,280.65,639.48,278.37,645.49,277.6L645.49,277.6z"/>
	<path class="st3" d="M485,279.71c4.12-2.48,9.37-2.69,13.87-1.17c-0.02,4.98,0,9.97-0.01,14.95c-2.95-1.91-6.62-2.73-10.1-2.37
		c-4.24,0.48-7.6,3.74-9.35,7.48c-1.89,3.95-2.25,8.43-2.13,12.75c0,9.96,0,19.91,0,29.87c-4.91,0-9.82,0-14.73,0
		c-0.01-20.81,0.02-41.62-0.01-62.43c4.92-0.06,9.84-0.04,14.75-0.01c-0.02,3.57,0,7.15-0.01,10.72
		C478.88,285.61,481.26,281.83,485,279.71L485,279.71z"/>
	<path class="st3" d="M377.77,278.77c4.96-0.02,9.91-0.07,14.87,0.03c-0.06,20.81,0,41.61-0.03,62.42c-4.95,0-9.89,0-14.84,0
		C377.77,320.4,377.79,299.59,377.77,278.77L377.77,278.77z"/>
	<path class="st1" d="M530.83,289.48c4.49-0.29,9.27,0.98,12.5,4.24c3.45,3.4,4.79,8.32,5.16,13.02c0.27,5.14,0.05,10.5-2.1,15.27
		c-1.43,3.21-4.04,5.93-7.34,7.21c-3.86,1.48-8.2,1.57-12.18,0.54c-4.06-1.07-7.49-4-9.37-7.73c-2.41-4.81-2.77-10.36-2.27-15.63
		c0.45-4.79,2.12-9.72,5.77-13.03C523.65,290.89,527.26,289.68,530.83,289.48L530.83,289.48z"/>
	<path class="st1" d="M649.52,289.49c4.22-0.29,8.73,0.68,11.97,3.53c2.99,2.48,4.65,6.2,5.41,9.94c0.85,4.39,0.85,8.93,0.12,13.35
		c-0.57,3.29-1.71,6.57-3.86,9.17c-2.17,2.61-5.4,4.21-8.73,4.7c-3.58,0.54-7.35,0.28-10.69-1.16c-3.61-1.53-6.41-4.65-7.88-8.25
		c-1.77-4.28-2.12-9.03-1.77-13.61c0.34-4.44,1.6-8.99,4.53-12.44C641.29,291.51,645.39,289.73,649.52,289.49L649.52,289.49z"/>
	<path class="st1" d="M746.21,290.82c4.95,0.02,9.9-0.13,14.85,0.07v37.36c-3.27,2.19-7.8,3.06-11.36,1.07
		c-2.13-1.17-2.95-3.69-3.23-5.96c-0.45-3.85-0.17-7.74-0.25-11.6C746.21,304.77,746.23,297.79,746.21,290.82L746.21,290.82z"/>
	<path class="st4" d="M80.84,301.16c23.03,0.01,46.07,0,69.1,0.01c0,23.03,0,46.06,0,69.1h-69.1V301.16L80.84,301.16z"/>
	<path class="st5" d="M157,301.17c23.03-0.01,46.06,0,69.1,0c0,23.03,0,46.07,0,69.1h-69.1C157,347.23,156.99,324.2,157,301.17
		L157,301.17z"/>
</g>
</svg>
